<?xml version="1.0" encoding="UTF-8" standalone="no"?>
<!-- Created with Inkscape (http://www.inkscape.org/) -->

<svg
   xmlns:dc="http://purl.org/dc/elements/1.1/"
   xmlns:cc="http://creativecommons.org/ns#"
   xmlns:rdf="http://www.w3.org/1999/02/22-rdf-syntax-ns#"
   xmlns:svg="http://www.w3.org/2000/svg"
   xmlns="http://www.w3.org/2000/svg"
   xmlns:sodipodi="http://sodipodi.sourceforge.net/DTD/sodipodi-0.dtd"
   xmlns:inkscape="http://www.inkscape.org/namespaces/inkscape"
   id="svg2"
   version="1.1"
   inkscape:version="0.47 r22583"
   width="765"
   height="990"
   xml:space="preserve"
   sodipodi:docname="Asymmetric_Circles_Grid_5x3_A4.pdf"><metadata
     id="metadata8"><rdf:RDF><cc:Work
         rdf:about=""><dc:format>image/svg+xml</dc:format><dc:type
           rdf:resource="http://purl.org/dc/dcmitype/StillImage" /><dc:title></dc:title></cc:Work></rdf:RDF></metadata><defs
     id="defs6"><inkscape:perspective
       sodipodi:type="inkscape:persp3d"
       inkscape:vp_x="0 : 0.5 : 1"
       inkscape:vp_y="0 : 1000 : 0"
       inkscape:vp_z="1 : 0.5 : 1"
       inkscape:persp3d-origin="0.5 : 0.33333333 : 1"
       id="perspective10" /><inkscape:perspective
       id="perspective2913"
       inkscape:persp3d-origin="0.5 : 0.33333333 : 1"
       inkscape:vp_z="1 : 0.5 : 1"
       inkscape:vp_y="0 : 1000 : 0"
       inkscape:vp_x="0 : 0.5 : 1"
       sodipodi:type="inkscape:persp3d" /><inkscape:perspective
       id="perspective2913-9"
       inkscape:persp3d-origin="0.5 : 0.33333333 : 1"
       inkscape:vp_z="1 : 0.5 : 1"
       inkscape:vp_y="0 : 1000 : 0"
       inkscape:vp_x="0 : 0.5 : 1"
       sodipodi:type="inkscape:persp3d" /><inkscape:perspective
       id="perspective2944"
       inkscape:persp3d-origin="0.5 : 0.33333333 : 1"
       inkscape:vp_z="1 : 0.5 : 1"
       inkscape:vp_y="0 : 1000 : 0"
       inkscape:vp_x="0 : 0.5 : 1"
       sodipodi:type="inkscape:persp3d" /><inkscape:perspective
       id="perspective2966"
       inkscape:persp3d-origin="0.5 : 0.33333333 : 1"
       inkscape:vp_z="1 : 0.5 : 1"
       inkscape:vp_y="0 : 1000 : 0"
       inkscape:vp_x="0 : 0.5 : 1"
       sodipodi:type="inkscape:persp3d" /><inkscape:perspective
       id="perspective3001"
       inkscape:persp3d-origin="0.5 : 0.33333333 : 1"
       inkscape:vp_z="1 : 0.5 : 1"
       inkscape:vp_y="0 : 1000 : 0"
       inkscape:vp_x="0 : 0.5 : 1"
       sodipodi:type="inkscape:persp3d" /><inkscape:perspective
       id="perspective3023"
       inkscape:persp3d-origin="0.5 : 0.33333333 : 1"
       inkscape:vp_z="1 : 0.5 : 1"
       inkscape:vp_y="0 : 1000 : 0"
       inkscape:vp_x="0 : 0.5 : 1"
       sodipodi:type="inkscape:persp3d" /><inkscape:perspective
       id="perspective3045"
       inkscape:persp3d-origin="0.5 : 0.33333333 : 1"
       inkscape:vp_z="1 : 0.5 : 1"
       inkscape:vp_y="0 : 1000 : 0"
       inkscape:vp_x="0 : 0.5 : 1"
       sodipodi:type="inkscape:persp3d" /><inkscape:perspective
       id="perspective3045-4"
       inkscape:persp3d-origin="0.5 : 0.33333333 : 1"
       inkscape:vp_z="1 : 0.5 : 1"
       inkscape:vp_y="0 : 1000 : 0"
       inkscape:vp_x="0 : 0.5 : 1"
       sodipodi:type="inkscape:persp3d" /><inkscape:perspective
       id="perspective3086"
       inkscape:persp3d-origin="0.5 : 0.33333333 : 1"
       inkscape:vp_z="1 : 0.5 : 1"
       inkscape:vp_y="0 : 1000 : 0"
       inkscape:vp_x="0 : 0.5 : 1"
       sodipodi:type="inkscape:persp3d" /><inkscape:perspective
       id="perspective3086-8"
       inkscape:persp3d-origin="0.5 : 0.33333333 : 1"
       inkscape:vp_z="1 : 0.5 : 1"
       inkscape:vp_y="0 : 1000 : 0"
       inkscape:vp_x="0 : 0.5 : 1"
       sodipodi:type="inkscape:persp3d" /></defs><sodipodi:namedview
     pagecolor="#ffffff"
     bordercolor="#666666"
     borderopacity="1"
     objecttolerance="10"
     gridtolerance="10"
     guidetolerance="10"
     inkscape:pageopacity="0"
     inkscape:pageshadow="2"
     inkscape:window-width="1495"
     inkscape:window-height="1543"
     id="namedview4"
     showgrid="true"
     inkscape:zoom="1.9070707"
     inkscape:cx="389.53117"
     inkscape:cy="832.17862"
     inkscape:window-x="0"
     inkscape:window-y="25"
     inkscape:window-maximized="0"
     inkscape:current-layer="g12"
     inkscape:snap-global="true"
     inkscape:document-units="mm"><inkscape:grid
       type="xygrid"
       id="grid2901"
       empspacing="16"
       visible="true"
       enabled="true"
       snapvisiblegridlinesonly="true"
       units="mm"
       spacingx="2.5mm"
       spacingy="2.5mm"
       empcolor="#c100ff"
       empopacity="0.25098039"
       dotted="false"
       originx="-12.5mm"
       originy="-12.5mm" /></sodipodi:namedview><g
     id="g12"
     inkscape:groupmode="layer"
     inkscape:label="dots_5x3"
     transform="matrix(1.25,0,0,-1.25,0,990.00002)"><path
       sodipodi:type="arc"
       style="fill:#000000"
       id="path2903"
       sodipodi:cx="132.87401"
       sodipodi:cy="414.21259"
       sodipodi:rx="17.716536"
       sodipodi:ry="17.716536"
       d="m 150.59054,414.21259 c 0,9.78457 -7.93196,17.71653 -17.71653,17.71653 -9.78457,0 -17.71654,-7.93196 -17.71654,-17.71653 0,-9.78458 7.93197,-17.71654 17.71654,-17.71654 9.78457,0 17.71653,7.93196 17.71653,17.71654 z"
       transform="matrix(1.1999999,0,0,-1.2000003,-81.496042,575.00798)" /><path
       sodipodi:type="arc"
       style="fill:#000000"
       id="path2903-5"
       sodipodi:cx="132.87401"
       sodipodi:cy="414.21259"
       sodipodi:rx="17.716536"
       sodipodi:ry="17.716536"
       d="m 150.59054,414.21259 c 0,9.78457 -7.93196,17.71653 -17.71653,17.71653 -9.78457,0 -17.71654,-7.93196 -17.71654,-17.71653 0,-9.78458 7.93197,-17.71654 17.71654,-17.71654 9.78457,0 17.71653,7.93196 17.71653,17.71654 z"
       transform="matrix(1.1999999,0,0,-1.2000003,145.27561,575.00798)" /><path
       sodipodi:type="arc"
       style="fill:#000000"
       id="path2903-5-2"
       sodipodi:cx="132.87401"
       sodipodi:cy="414.21259"
       sodipodi:rx="17.716536"
       sodipodi:ry="17.716536"
       d="m 150.59054,414.21259 c 0,9.78457 -7.93196,17.71653 -17.71653,17.71653 -9.78457,0 -17.71654,-7.93196 -17.71654,-17.71653 0,-9.78458 7.93197,-17.71654 17.71654,-17.71654 9.78457,0 17.71653,7.93196 17.71653,17.71654 z"
       transform="matrix(1.1999999,0,0,-1.2000003,372.04726,575.00798)" /><path
       sodipodi:type="arc"
       style="fill:#000000"
       id="path2903-54"
       sodipodi:cx="132.87401"
       sodipodi:cy="414.21259"
       sodipodi:rx="17.716536"
       sodipodi:ry="17.716536"
       d="m 150.59054,414.21259 c 0,9.78457 -7.93196,17.71653 -17.71653,17.71653 -9.78457,0 -17.71654,-7.93196 -17.71654,-17.71653 0,-9.78458 7.93197,-17.71654 17.71654,-17.71654 9.78457,0 17.71653,7.93196 17.71653,17.71654 z"
       transform="matrix(1.1999999,0,0,-1.2000003,-81.496036,801.77964)" /><path
       sodipodi:type="arc"
       style="fill:#000000"
       id="path2903-5-7"
       sodipodi:cx="132.87401"
       sodipodi:cy="414.21259"
       sodipodi:rx="17.716536"
       sodipodi:ry="17.716536"
       d="m 150.59054,414.21259 c 0,9.78457 -7.93196,17.71653 -17.71653,17.71653 -9.78457,0 -17.71654,-7.93196 -17.71654,-17.71653 0,-9.78458 7.93197,-17.71654 17.71654,-17.71654 9.78457,0 17.71653,7.93196 17.71653,17.71654 z"
       transform="matrix(1.1999999,0,0,-1.2000003,145.27561,801.77964)" /><path
       sodipodi:type="arc"
       style="fill:#000000"
       id="path2903-5-2-4"
       sodipodi:cx="132.87401"
       sodipodi:cy="414.21259"
       sodipodi:rx="17.716536"
       sodipodi:ry="17.716536"
       d="m 150.59054,414.21259 c 0,9.78457 -7.93196,17.71653 -17.71653,17.71653 -9.78457,0 -17.71654,-7.93196 -17.71654,-17.71653 0,-9.78458 7.93197,-17.71654 17.71654,-17.71654 9.78457,0 17.71653,7.93196 17.71653,17.71654 z"
       transform="matrix(1.1999999,0,0,-1.2000003,372.04726,801.77964)" /><path
       sodipodi:type="arc"
       style="fill:#000000"
       id="path2903-3"
       sodipodi:cx="132.87401"
       sodipodi:cy="414.21259"
       sodipodi:rx="17.716536"
       sodipodi:ry="17.716536"
       d="m 150.59054,414.21259 c 0,9.78457 -7.93196,17.71653 -17.71653,17.71653 -9.78457,0 -17.71654,-7.93196 -17.71654,-17.71653 0,-9.78458 7.93197,-17.71654 17.71654,-17.71654 9.78457,0 17.71653,7.93196 17.71653,17.71654 z"
       transform="matrix(1.1999999,0,0,-1.2000003,-81.496035,1028.5513)" /><path
       sodipodi:type="arc"
       style="fill:#000000"
       id="path2903-5-0"
       sodipodi:cx="132.87401"
       sodipodi:cy="414.21259"
       sodipodi:rx="17.716536"
       sodipodi:ry="17.716536"
       d="m 150.59054,414.21259 c 0,9.78457 -7.93196,17.71653 -17.71653,17.71653 -9.78457,0 -17.71654,-7.93196 -17.71654,-17.71653 0,-9.78458 7.93197,-17.71654 17.71654,-17.71654 9.78457,0 17.71653,7.93196 17.71653,17.71654 z"
       transform="matrix(1.1999999,0,0,-1.2000003,145.27561,1028.5513)" /><path
       sodipodi:type="arc"
       style="fill:#000000"
       id="path2903-5-2-7"
       sodipodi:cx="132.87401"
       sodipodi:cy="414.21259"
       sodipodi:rx="17.716536"
       sodipodi:ry="17.716536"
       d="m 150.59054,414.21259 c 0,9.78457 -7.93196,17.71653 -17.71653,17.71653 -9.78457,0 -17.71654,-7.93196 -17.71654,-17.71653 0,-9.78458 7.93197,-17.71654 17.71654,-17.71654 9.78457,0 17.71653,7.93196 17.71653,17.71654 z"
       transform="matrix(1.1999999,0,0,-1.2000003,372.04726,1028.5513)" /><path
       sodipodi:type="arc"
       style="fill:#000000"
       id="path2903-8"
       sodipodi:cx="132.87401"
       sodipodi:cy="414.21259"
       sodipodi:rx="17.716536"
       sodipodi:ry="17.716536"
       d="m 150.59054,414.21259 c 0,9.78457 -7.93196,17.71653 -17.71653,17.71653 -9.78457,0 -17.71654,-7.93196 -17.71654,-17.71653 0,-9.78458 7.93197,-17.71654 17.71654,-17.71654 9.78457,0 17.71653,7.93196 17.71653,17.71654 z"
       transform="matrix(1.1999999,0,0,-1.2000003,31.889785,688.39382)" /><path
       sodipodi:type="arc"
       style="fill:#000000"
       id="path2903-54-6"
       sodipodi:cx="132.87401"
       sodipodi:cy="414.21259"
       sodipodi:rx="17.716536"
       sodipodi:ry="17.716536"
       d="m 150.59054,414.21259 c 0,9.78457 -7.93196,17.71653 -17.71653,17.71653 -9.78457,0 -17.71654,-7.93196 -17.71654,-17.71653 0,-9.78458 7.93197,-17.71654 17.71654,-17.71654 9.78457,0 17.71653,7.93196 17.71653,17.71654 z"
       transform="matrix(1.1999999,0,0,-1.2000003,31.889785,915.16546)" /><path
       sodipodi:type="arc"
       style="fill:#000000"
       id="path2903-3-8"
       sodipodi:cx="132.87401"
       sodipodi:cy="414.21259"
       sodipodi:rx="17.716536"
       sodipodi:ry="17.716536"
       d="m 150.59054,414.21259 c 0,9.78457 -7.93196,17.71653 -17.71653,17.71653 -9.78457,0 -17.71654,-7.93196 -17.71654,-17.71653 0,-9.78458 7.93197,-17.71654 17.71654,-17.71654 9.78457,0 17.71653,7.93196 17.71653,17.71654 z"
       transform="matrix(1.1999999,0,0,-1.2000003,31.889795,1141.9372)" /><path
       sodipodi:type="arc"
       style="fill:#000000"
       id="path2903-4"
       sodipodi:cx="132.87401"
       sodipodi:cy="414.21259"
       sodipodi:rx="17.716536"
       sodipodi:ry="17.716536"
       d="m 150.59054,414.21259 c 0,9.78457 -7.93196,17.71653 -17.71653,17.71653 -9.78457,0 -17.71654,-7.93196 -17.71654,-17.71653 0,-9.78458 7.93197,-17.71654 17.71654,-17.71654 9.78457,0 17.71653,7.93196 17.71653,17.71654 z"
       transform="matrix(1.1999999,0,0,-1.2000003,258.66144,688.39382)" /><path
       sodipodi:type="arc"
       style="fill:#000000"
       id="path2903-54-3"
       sodipodi:cx="132.87401"
       sodipodi:cy="414.21259"
       sodipodi:rx="17.716536"
       sodipodi:ry="17.716536"
       d="m 150.59054,414.21259 c 0,9.78457 -7.93196,17.71653 -17.71653,17.71653 -9.78457,0 -17.71654,-7.93196 -17.71654,-17.71653 0,-9.78458 7.93197,-17.71654 17.71654,-17.71654 9.78457,0 17.71653,7.93196 17.71653,17.71654 z"
       transform="matrix(1.1999999,0,0,-1.2000003,258.66144,915.16546)" /><path
       sodipodi:type="arc"
       style="fill:#000000"
       id="path2903-3-1"
       sodipodi:cx="132.87401"
       sodipodi:cy="414.21259"
       sodipodi:rx="17.716536"
       sodipodi:ry="17.716536"
       d="m 150.59054,414.21259 c 0,9.78457 -7.93196,17.71653 -17.71653,17.71653 -9.78457,0 -17.71654,-7.93196 -17.71654,-17.71653 0,-9.78458 7.93197,-17.71654 17.71654,-17.71654 9.78457,0 17.71653,7.93196 17.71653,17.71654 z"
       transform="matrix(1.1999999,0,0,-1.2000003,258.66145,1141.9372)" /><path
       style="fill:none;stroke:#000000;stroke-width:0.80000001px;stroke-linecap:butt;stroke-linejoin:miter;stroke-opacity:1"
       d="m 77.952764,701.5748 0,28.34646 453.543306,0 0,-28.34646"
       id="path3119" /><path
       style="fill:none;stroke:#000000;stroke-width:0.00085158px;stroke-linecap:butt;stroke-linejoin:miter;stroke-opacity:1"
       d="m 191.33859,729.82781 0,-21.1664"
       id="path3121" /><path
       style="fill:none;stroke:#000000;stroke-width:0.80000001px;stroke-linecap:butt;stroke-linejoin:miter;stroke-opacity:1"
       d="m 304.72442,729.92126 0,-28.34646"
       id="path3123" /><path
       style="fill:none;stroke:#000000;stroke-width:0.69282031px;stroke-linecap:butt;stroke-linejoin:miter;stroke-opacity:1"
       d="m 418.11025,729.92126 0,-21.25985"
       id="path3125" /><path
       style="fill:none;stroke:#000000;stroke-width:0.80000001px;stroke-linecap:butt;stroke-linejoin:miter;stroke-opacity:1"
       d="m 191.33859,729.92126 0,-21.25984"
       id="path3127" /><path
       style="fill:none;stroke:#000000;stroke-width:0.80000001px;stroke-linecap:butt;stroke-linejoin:miter;stroke-opacity:1"
       d="m 134.64568,729.92126 0,-14.17323"
       id="path3129" /><path
       style="fill:none;stroke:#000000;stroke-width:0.80000001px;stroke-linecap:butt;stroke-linejoin:miter;stroke-opacity:1"
       d="m 248.0315,729.92126 0,-14.17323"
       id="path3131" /><path
       style="fill:none;stroke:#000000;stroke-width:0.80000001px;stroke-linecap:butt;stroke-linejoin:miter;stroke-opacity:1"
       d="m 361.41733,729.92126 0,-14.17323"
       id="path3133" /><path
       style="fill:none;stroke:#000000;stroke-width:0.80000001px;stroke-linecap:butt;stroke-linejoin:miter;stroke-opacity:1"
       d="m 474.80316,729.92126 0,-14.17323"
       id="path3135" /><path
       style="fill:none;stroke:#000000;stroke-width:0.80000001px;stroke-linecap:butt;stroke-linejoin:miter;stroke-opacity:1"
       d="m 106.29922,729.92126 0,-7.08661"
       id="path3137" /><path
       style="fill:none;stroke:#000000;stroke-width:0.80000001px;stroke-linecap:butt;stroke-linejoin:miter;stroke-opacity:1"
       d="m 162.99214,729.92126 0,-7.08661"
       id="path3139" /><path
       style="fill:none;stroke:#000000;stroke-width:0.80000001px;stroke-linecap:butt;stroke-linejoin:miter;stroke-opacity:1"
       d="m 219.68505,729.92126 0,-7.08661"
       id="path3141" /><path
       style="fill:none;stroke:#000000;stroke-width:0.80000001px;stroke-linecap:butt;stroke-linejoin:miter;stroke-opacity:1"
       d="m 276.37796,729.92126 0,-7.08661"
       id="path3143" /><path
       style="fill:none;stroke:#000000;stroke-width:0.80000001px;stroke-linecap:butt;stroke-linejoin:miter;stroke-opacity:1"
       d="m 333.07087,729.92126 0,-7.08661"
       id="path3145" /><path
       style="fill:none;stroke:#000000;stroke-width:0.80000001px;stroke-linecap:butt;stroke-linejoin:miter;stroke-opacity:1"
       d="m 389.76378,729.92126 0,-7.08661"
       id="path3147" /><path
       style="fill:none;stroke:#000000;stroke-width:0.80000001px;stroke-linecap:butt;stroke-linejoin:miter;stroke-opacity:1"
       d="m 446.4567,729.92126 0,-7.08661"
       id="path3149" /><path
       style="fill:none;stroke:#000000;stroke-width:0.80000001px;stroke-linecap:butt;stroke-linejoin:miter;stroke-opacity:1"
       d="m 503.14962,729.92126 0,-7.08661"
       id="path3151" /><text
       xml:space="preserve"
       style="font-size:6.4000001px;font-style:normal;font-weight:normal;fill:#000000;fill-opacity:1;stroke:none;font-family:Bitstream Vera Sans"
       x="79.262794"
       y="-752.70471"
       id="text3153"
       transform="scale(0.98347223,-1.0168055)"><tspan
         sodipodi:role="line"
         x="79.262794"
         y="-752.70471"
         id="tspan3182">Print on A4 paper.  The small ticks on the ruler below should be 1cm apart.  The circles should be 8cm apart along the X or Y axis.</tspan></text>
<text
       xml:space="preserve"
       style="font-size:6.4000001px;font-style:normal;font-variant:normal;font-weight:normal;font-stretch:normal;fill:#000000;fill-opacity:1;stroke:none;font-family:Monospace;-inkscape-font-specification:Monospace"
       x="77.952759"
       y="-751.18109"
       id="text3184"
       transform="scale(1,-1)"><tspan
         sodipodi:role="line"
         id="tspan3186"
         x="77.952759"
         y="-751.18109">ecto_opencv.calib.PatternDetector(rows=5, cols=3, </tspan><tspan
         sodipodi:role="line"
         x="77.952759"
         y="-743.18109"
         id="tspan3192">                                  pattern_type=ecto_opencv.calib.ASYMMETRIC_CIRCLES_GRID,</tspan><tspan
         sodipodi:role="line"
         x="77.952759"
         y="-735.18109"
         id="tspan3190">                                  square_size=0.04) # yes 0.04, not 0.08</tspan></text>
</g></svg>