<?xml version="1.0" encoding="UTF-8" standalone="no"?>
<svg
   xmlns:dc="http://purl.org/dc/elements/1.1/"
   xmlns:cc="http://creativecommons.org/ns#"
   xmlns:rdf="http://www.w3.org/1999/02/22-rdf-syntax-ns#"
   xmlns:svg="http://www.w3.org/2000/svg"
   xmlns="http://www.w3.org/2000/svg"
   xmlns:sodipodi="http://sodipodi.sourceforge.net/DTD/sodipodi-0.dtd"
   xmlns:inkscape="http://www.inkscape.org/namespaces/inkscape"
   style="text-anchor:middle;fill:none;stroke:#000000;stroke-width:0.5pt;stroke-linejoin:round;font-family:'Helvetica, Arial, FreeSans, Sans, sans, sans-serif'"
   height="990"
   width="765"
   version="1.1"
   viewBox="0 0 215.90001 279.39999"
   id="svg3019"
   inkscape:version="0.48.1 r9760"
   sodipodi:docname="out.svg">
  <metadata
     id="metadata3057">
    <rdf:RDF>
      <cc:Work
         rdf:about="">
        <dc:format>image/svg+xml</dc:format>
        <dc:type
           rdf:resource="http://purl.org/dc/dcmitype/StillImage" />
        <dc:title></dc:title>
      </cc:Work>
    </rdf:RDF>
  </metadata>
  <defs
     id="defs3055" />
  <sodipodi:namedview
     pagecolor="#ffffff"
     bordercolor="#666666"
     borderopacity="1"
     objecttolerance="10"
     gridtolerance="10"
     guidetolerance="10"
     inkscape:pageopacity="0"
     inkscape:pageshadow="2"
     inkscape:window-width="2560"
     inkscape:window-height="1525"
     id="namedview3053"
     showgrid="true"
     inkscape:document-units="mm"
     units="mm"
     inkscape:snap-object-midpoints="true"
     inkscape:zoom="1.0479649"
     inkscape:cx="509.89671"
     inkscape:cy="403.01825"
     inkscape:window-x="0"
     inkscape:window-y="25"
     inkscape:window-maximized="1"
     inkscape:current-layer="svg3019">
    <inkscape:grid
       type="xygrid"
       id="grid3059"
       empspacing="10"
       visible="true"
       enabled="true"
       snapvisiblegridlinesonly="true"
       units="mm"
       spacingx="1mm"
       spacingy="1mm" />
  </sodipodi:namedview>
  <g
     id="g3021"
     transform="matrix(0,-1,1,0,-58.999999,299.4)">
    <circle
       cy="239"
       cx="40"
       r="8"
       id="circle3023"
       d="m 48,239 c 0,4.41828 -3.581722,8 -8,8 -4.418278,0 -8,-3.58172 -8,-8 0,-4.41828 3.581722,-8 8,-8 4.418278,0 8,3.58172 8,8 z"
       sodipodi:cx="40"
       sodipodi:cy="239"
       sodipodi:rx="8"
       sodipodi:ry="8"
       style="fill:#000000" />
    <circle
       cy="239"
       cx="120"
       r="8"
       id="circle3025"
       d="m 128,239 c 0,4.41828 -3.58172,8 -8,8 -4.41828,0 -8,-3.58172 -8,-8 0,-4.41828 3.58172,-8 8,-8 4.41828,0 8,3.58172 8,8 z"
       sodipodi:cx="120"
       sodipodi:cy="239"
       sodipodi:rx="8"
       sodipodi:ry="8"
       style="fill:#000000" />
    <circle
       cy="239"
       cx="200"
       r="8"
       id="circle3027"
       d="m 208,239 c 0,4.41828 -3.58172,8 -8,8 -4.41828,0 -8,-3.58172 -8,-8 0,-4.41828 3.58172,-8 8,-8 4.41828,0 8,3.58172 8,8 z"
       sodipodi:cx="200"
       sodipodi:cy="239"
       sodipodi:rx="8"
       sodipodi:ry="8"
       style="fill:#000000" />
    <circle
       cy="199"
       cx="80"
       r="8"
       id="circle3029"
       d="m 88,199 c 0,4.41828 -3.581722,8 -8,8 -4.418278,0 -8,-3.58172 -8,-8 0,-4.41828 3.581722,-8 8,-8 4.418278,0 8,3.58172 8,8 z"
       sodipodi:cx="80"
       sodipodi:cy="199"
       sodipodi:rx="8"
       sodipodi:ry="8"
       style="fill:#000000" />
    <circle
       cy="199"
       cx="160"
       r="8"
       id="circle3031"
       d="m 168,199 c 0,4.41828 -3.58172,8 -8,8 -4.41828,0 -8,-3.58172 -8,-8 0,-4.41828 3.58172,-8 8,-8 4.41828,0 8,3.58172 8,8 z"
       sodipodi:cx="160"
       sodipodi:cy="199"
       sodipodi:rx="8"
       sodipodi:ry="8"
       style="fill:#000000" />
    <circle
       cy="199"
       cx="240"
       r="8"
       id="circle3033"
       d="m 248,199 c 0,4.41828 -3.58172,8 -8,8 -4.41828,0 -8,-3.58172 -8,-8 0,-4.41828 3.58172,-8 8,-8 4.41828,0 8,3.58172 8,8 z"
       sodipodi:cx="240"
       sodipodi:cy="199"
       sodipodi:rx="8"
       sodipodi:ry="8"
       style="fill:#000000" />
    <circle
       cy="159"
       cx="40"
       r="8"
       id="circle3035"
       d="m 48,159 c 0,4.41828 -3.581722,8 -8,8 -4.418278,0 -8,-3.58172 -8,-8 0,-4.41828 3.581722,-8 8,-8 4.418278,0 8,3.58172 8,8 z"
       sodipodi:cx="40"
       sodipodi:cy="159"
       sodipodi:rx="8"
       sodipodi:ry="8"
       style="fill:#000000" />
    <circle
       cy="159"
       cx="120"
       r="8"
       id="circle3037"
       d="m 128,159 c 0,4.41828 -3.58172,8 -8,8 -4.41828,0 -8,-3.58172 -8,-8 0,-4.41828 3.58172,-8 8,-8 4.41828,0 8,3.58172 8,8 z"
       sodipodi:cx="120"
       sodipodi:cy="159"
       sodipodi:rx="8"
       sodipodi:ry="8"
       style="fill:#000000" />
    <circle
       cy="159"
       cx="200"
       r="8"
       id="circle3039"
       d="m 208,159 c 0,4.41828 -3.58172,8 -8,8 -4.41828,0 -8,-3.58172 -8,-8 0,-4.41828 3.58172,-8 8,-8 4.41828,0 8,3.58172 8,8 z"
       sodipodi:cx="200"
       sodipodi:cy="159"
       sodipodi:rx="8"
       sodipodi:ry="8"
       style="fill:#000000" />
    <circle
       cy="119"
       cx="80"
       r="8"
       id="circle3041"
       d="m 88,119 c 0,4.41828 -3.581722,8 -8,8 -4.418278,0 -8,-3.58172 -8,-8 0,-4.41828 3.581722,-8 8,-8 4.418278,0 8,3.58172 8,8 z"
       sodipodi:cx="80"
       sodipodi:cy="119"
       sodipodi:rx="8"
       sodipodi:ry="8"
       style="fill:#000000" />
    <circle
       cy="119"
       cx="160"
       r="8"
       id="circle3043"
       d="m 168,119 c 0,4.41828 -3.58172,8 -8,8 -4.41828,0 -8,-3.58172 -8,-8 0,-4.41828 3.58172,-8 8,-8 4.41828,0 8,3.58172 8,8 z"
       sodipodi:cx="160"
       sodipodi:cy="119"
       sodipodi:rx="8"
       sodipodi:ry="8"
       style="fill:#000000" />
    <circle
       cy="119"
       cx="240"
       r="8"
       id="circle3045"
       d="m 248,119 c 0,4.41828 -3.58172,8 -8,8 -4.41828,0 -8,-3.58172 -8,-8 0,-4.41828 3.58172,-8 8,-8 4.41828,0 8,3.58172 8,8 z"
       sodipodi:cx="240"
       sodipodi:cy="119"
       sodipodi:rx="8"
       sodipodi:ry="8"
       style="fill:#000000" />
    <circle
       cy="79"
       cx="40"
       r="8"
       id="circle3047"
       d="m 48,79 c 0,4.418278 -3.581722,8 -8,8 -4.418278,0 -8,-3.581722 -8,-8 0,-4.418278 3.581722,-8 8,-8 4.418278,0 8,3.581722 8,8 z"
       sodipodi:cx="40"
       sodipodi:cy="79"
       sodipodi:rx="8"
       sodipodi:ry="8"
       style="fill:#000000" />
    <circle
       cy="79"
       cx="120"
       r="8"
       id="circle3049"
       d="m 128,79 c 0,4.418278 -3.58172,8 -8,8 -4.41828,0 -8,-3.581722 -8,-8 0,-4.418278 3.58172,-8 8,-8 4.41828,0 8,3.581722 8,8 z"
       sodipodi:cx="120"
       sodipodi:cy="79"
       sodipodi:rx="8"
       sodipodi:ry="8"
       style="fill:#000000" />
    <circle
       cy="79"
       cx="200"
       r="8"
       id="circle3051"
       d="m 208,79 c 0,4.418278 -3.58172,8 -8,8 -4.41828,0 -8,-3.581722 -8,-8 0,-4.418278 3.58172,-8 8,-8 4.41828,0 8,3.581722 8,8 z"
       sodipodi:cx="200"
       sodipodi:cy="79"
       sodipodi:rx="8"
       sodipodi:ry="8"
       style="fill:#000000" />
  </g>
</svg>
